Coordinates
version=1
nRows=49
nColumns=12
inDegrees=yes

Units are S.I. units (second, meters, Newtons, ...)
Angles are in degrees

endheader
time	SC_y	SC_z	SC_x	AC_y	AC_z	AC_x	GH_y	GH_z	GH_yy	EL_x	PS_y
       0.0              -13.68         -1.111          26.24          58.89         -2.462          14.07          42.83          75.01          122.7          57.09          140.8
   0.03904              -13.68         -1.107          26.24          58.88         -2.463          14.07           42.8          75.01          122.7          57.09          140.8
   0.07808              -13.68         -1.103          26.24          58.88         -2.465          14.07          42.77          75.01          122.7          57.08          140.7
    0.1171              -13.68         -1.098          26.23          58.88         -2.467          14.07          42.73           75.0          122.7          57.07          140.7
    0.1562              -13.69         -1.093          26.23          58.88          -2.47          14.07           42.7           75.0          122.7          57.07          140.7
    0.1952              -13.69         -1.088          26.23          58.88         -2.472          14.07          42.66           75.0          122.7          57.06          140.7
    0.2342              -13.69         -1.082          26.23          58.88         -2.474          14.07          42.61           75.0          122.7          57.05          140.7
    0.2733              -13.69         -1.076          26.23          58.87         -2.477          14.07          42.57          74.99          122.7          57.04          140.7
    0.3123               -13.7          -1.07          26.22          58.87          -2.48          14.06          42.52          74.99          122.7          57.03          140.6
    0.3514               -13.7         -1.063          26.22          58.87         -2.483          14.06          42.47          74.99          122.7          57.02          140.6
    0.3904               -13.7         -1.056          26.22          58.87         -2.486          14.06          42.41          74.99          122.6          57.01          140.6
    0.4295              -13.71         -1.048          26.22          58.86          -2.49          14.06          42.35          74.98          122.6           57.0          140.6
    0.4685              -13.71         -1.039          26.21          58.86         -2.494          14.06          42.29          74.98          122.6          56.98          140.5
    0.5075              -13.72          -1.03          26.21          58.86         -2.498          14.06          42.22          74.97          122.6          56.97          140.5
    0.5466              -13.72          -1.02           26.2          58.85         -2.502          14.05          42.14          74.97          122.6          56.95          140.5
    0.5856              -13.72         -1.009           26.2          58.85         -2.507          14.05          42.06          74.97          122.6          56.94          140.4
    0.6247              -13.73        -0.9976           26.2          58.85         -2.512          14.05          41.97          74.96          122.5          56.92          140.4
    0.6637              -13.74        -0.9848          26.19          58.84         -2.518          14.05          41.87          74.96          122.5           56.9          140.4
    0.7027              -13.74        -0.9708          26.19          58.84         -2.524          14.04          41.76          74.95          122.5          56.88          140.3
    0.7418              -13.75        -0.9555          26.18          58.83         -2.531          14.04          41.65          74.94          122.5          56.85          140.3
    0.7808              -13.76        -0.9386          26.17          58.82         -2.539          14.04          41.52          74.94          122.4          56.83          140.2
    0.8199              -13.77        -0.9201          26.17          58.82         -2.547          14.03          41.38          74.93          122.4           56.8          140.1
    0.8589              -13.78        -0.8997          26.16          58.81         -2.556          14.03          41.22          74.92          122.4          56.77          140.1
     0.898              -13.79         -0.877          26.15           58.8         -2.566          14.02          41.05          74.91          122.3          56.73          140.0
     0.937               -13.8        -0.8518          26.14          58.79         -2.578          14.02          40.86           74.9          122.3          56.69          139.9
     0.976              -13.81        -0.8237          26.13          58.78          -2.59          14.01          40.65          74.89          122.2          56.65          139.8
     1.015              -13.83        -0.7922          26.12          58.77         -2.604           14.0          40.41          74.87          122.2           56.6          139.7
     1.054              -13.84        -0.7568           26.1          58.76          -2.62           14.0          40.14          74.86          122.1          56.54          139.6
     1.093              -13.86        -0.7168          26.09          58.75         -2.638          13.99          39.83          74.84          122.0          56.48          139.5
     1.132              -13.88        -0.6713          26.07          58.73         -2.659          13.98          39.49          74.82          122.0          56.41          139.3
     1.171               -13.9        -0.6195          26.05          58.71         -2.682          13.97          39.09           74.8          121.9          56.33          139.1
      1.21              -13.93        -0.5599          26.03          58.69         -2.709          13.95          38.64          74.77          121.8          56.24          138.9
     1.249              -13.96        -0.4912           26.0          58.67         -2.739          13.94          38.12          74.74          121.6          56.13          138.7
     1.288               -14.0        -0.4113          25.97          58.64         -2.775          13.92          37.51          74.71          121.5          56.01          138.4
     1.327              -14.04        -0.3179          25.93          58.61         -2.817           13.9           36.8          74.67          121.3          55.87          138.1
     1.366              -14.09        -0.2077          25.89          58.57         -2.866          13.88          35.96          74.62          121.1           55.7          137.8
     1.405              -14.16       -0.07683          25.84          58.52         -2.925          13.85          34.96          74.57          120.9          55.49          137.3
     1.445              -14.23        0.08008          25.78          58.46         -2.995          13.82          33.77           74.5          120.6          55.25          136.8
     1.484              -14.32         0.2699           25.7           58.4         -3.081          13.77          32.33          74.42          120.3          54.96          136.2
     1.523              -14.42         0.5018          25.61          58.32         -3.184          13.72          30.56          74.32          119.9           54.6          135.4
     1.562              -14.55          0.788           25.5          58.21         -3.313          13.66          28.38          74.19          119.4          54.16          134.4
     1.601              -14.72          1.145          25.37          58.09         -3.473          13.58          25.67          74.04          118.7           53.6          133.3
      1.64              -14.93          1.595          25.19          57.93         -3.674          13.49          22.25          73.85          117.9          52.91          131.8
     1.679              -15.19          2.166          24.97          57.73          -3.93          13.36           17.9           73.6          116.9          52.02          129.9
     1.718              -15.53          2.898          24.69          57.47         -4.258          13.21          12.33          73.29          115.6          50.89          127.4
     1.757              -15.96          3.836          24.32          57.14         -4.679           13.0          5.192          72.88          114.0          49.44          124.3
     1.796              -16.51          5.036          23.86          56.71         -5.217          12.74         -3.931          72.37          111.8          47.58          120.3
     1.835              -17.21          6.543          23.27          56.18         -5.892          12.42          -15.4          71.72          109.1          45.25          115.3
     1.874              -18.06          8.381          22.56          55.53         -6.716          12.02         -29.38          70.93          105.9          42.41          109.2
